<svg width="220" height="220" viewBox="0 0 220 220" fill="none" xmlns="http://www.w3.org/2000/svg">
<path d="M117 166H112V220H117V166Z" fill="white"/>
<path d="M93.9208 156.963C92.1281 153.805 91.0053 150.337 90.6174 146.759C90.2294 143.181 90.5841 139.565 91.6608 136.12C95.4474 123.895 108.869 116.904 121.587 120.537C124.163 121.271 126.563 122.485 128.651 124.111C130.739 125.736 132.473 127.741 133.754 130.011C135.035 132.28 135.838 134.77 136.118 137.338C136.397 139.906 136.147 142.502 135.382 144.977C134.729 147.094 133.647 149.068 132.199 150.783C130.751 152.499 128.965 153.923 126.944 154.975C124.922 156.027 122.705 156.686 120.418 156.914C118.132 157.142 115.821 156.934 113.618 156.304C109.721 155.189 107.065 153.621 105.25 151.364C103.304 148.945 102.487 145.886 102.75 142.012C102.971 138.743 104.543 135.876 107.179 133.938C109.379 132.317 112.101 131.49 114.87 131.601C119.296 131.826 122.387 134.794 122.224 138.659C122.183 139.611 121.793 140.517 121.123 141.218C120.452 141.919 119.545 142.369 118.562 142.487C117.579 142.606 116.584 142.386 115.754 141.867C114.924 141.347 114.312 140.562 114.028 139.65C113.467 139.714 112.93 139.903 112.458 140.201C111.621 140.733 111.187 141.497 111.109 142.535C110.846 146.412 112.166 147.492 116.01 148.589C118.329 149.246 120.824 148.994 122.949 147.886C125.074 146.778 126.656 144.906 127.346 142.68C128.259 139.728 127.913 136.55 126.387 133.843C124.861 131.136 122.278 129.122 119.207 128.245C115.216 127.11 110.919 127.542 107.26 129.448C103.6 131.353 100.877 134.576 99.6878 138.408C98.9342 140.842 98.6869 143.394 98.96 145.919C99.2331 148.445 100.021 150.894 101.279 153.127C102.538 155.359 104.241 157.332 106.293 158.932C108.344 160.532 110.704 161.728 113.237 162.452C116.447 163.377 119.817 163.682 123.151 163.348C126.485 163.014 129.716 162.049 132.66 160.507C134.835 159.377 136.829 157.95 138.579 156.271C141.842 151.602 143.552 146.09 143.482 140.466C143.412 134.843 141.565 129.372 138.186 124.78C134.808 120.187 130.057 116.689 124.563 114.75C119.069 112.81 113.091 112.52 107.421 113.918C101.752 115.316 96.6586 118.337 92.8159 122.579C88.9732 126.821 86.5626 132.085 85.9035 137.674C85.2443 143.262 86.3679 148.911 89.1251 153.872C91.8824 158.833 96.1433 162.872 101.343 165.454C98.2906 163.141 95.7644 160.251 93.9208 156.963Z" fill="#FDDA24"/>
<path d="M113.234 162.452C108.119 160.991 103.818 157.638 101.276 153.13C98.7341 148.622 98.16 143.328 99.68 138.413C100.869 134.581 103.593 131.358 107.252 129.453C110.911 127.547 115.208 127.115 119.199 128.25C122.27 129.126 124.853 131.139 126.38 133.844C127.908 136.55 128.254 139.728 127.344 142.679C126.652 144.906 125.069 146.778 122.943 147.885C120.816 148.992 118.32 149.243 116.001 148.584C112.156 147.486 110.836 146.407 111.1 142.529C111.17 141.492 111.611 140.728 112.448 140.196C112.92 139.897 113.458 139.708 114.018 139.645C114.302 140.556 114.913 141.341 115.741 141.861C116.57 142.381 117.564 142.602 118.546 142.485C119.528 142.367 120.436 141.92 121.107 141.221C121.779 140.523 122.171 139.618 122.214 138.668C122.378 134.803 119.286 131.834 114.861 131.609C112.092 131.499 109.372 132.326 107.173 133.946C104.538 135.884 102.966 138.752 102.744 142.02C102.481 145.894 103.289 148.953 105.244 151.373C107.059 153.63 109.718 155.198 113.615 156.312C115.819 156.943 118.131 157.15 120.418 156.921C122.705 156.693 124.922 156.033 126.944 154.98C128.965 153.928 130.751 152.502 132.198 150.785C133.646 149.069 134.727 147.095 135.38 144.977C136.145 142.501 136.395 139.906 136.115 137.338C135.836 134.77 135.033 132.28 133.752 130.01C132.47 127.741 130.737 125.736 128.649 124.111C126.561 122.485 124.161 121.271 121.584 120.537C108.867 116.904 95.4451 123.894 91.6585 136.12C90.0357 141.38 90.0921 146.987 91.8204 152.216C93.5487 157.446 96.8695 162.057 101.354 165.453C107.652 168.577 114.926 169.367 121.791 167.674C128.657 165.981 134.635 161.922 138.589 156.27C136.839 157.95 134.846 159.377 132.67 160.507C129.725 162.05 126.491 163.016 123.155 163.35C119.819 163.684 116.447 163.379 113.234 162.452Z" fill="#FF7F41"/>
</svg>
