<svg width="220" height="220" viewBox="0 0 220 220" fill="none" xmlns="http://www.w3.org/2000/svg">
<path d="M162.866 68.0249C174.343 68.0249 183.646 59.0852 183.646 48.0574C183.646 37.0296 174.343 28.0898 162.866 28.0898C151.389 28.0898 142.085 37.0296 142.085 48.0574C142.085 59.0852 151.389 68.0249 162.866 68.0249Z" fill="#9063CD"/>
<path d="M143.495 80.5503C154.971 80.5503 164.275 71.6105 164.275 60.5828C164.275 49.555 154.971 40.6152 143.495 40.6152C132.018 40.6152 122.714 49.555 122.714 60.5828C122.714 71.6105 132.018 80.5503 143.495 80.5503Z" fill="#2C2A29"/>
<path d="M66.7114 68.0249C78.1882 68.0249 87.4921 59.0852 87.4921 48.0574C87.4921 37.0296 78.1882 28.0898 66.7114 28.0898C55.2345 28.0898 45.9307 37.0296 45.9307 48.0574C45.9307 59.0852 55.2345 68.0249 66.7114 68.0249Z" fill="#9063CD"/>
<path d="M86.0844 80.5503C97.5613 80.5503 106.865 71.6105 106.865 60.5828C106.865 49.555 97.5613 40.6152 86.0844 40.6152C74.6076 40.6152 65.3037 49.555 65.3037 60.5828C65.3037 71.6105 74.6076 80.5503 86.0844 80.5503Z" fill="#2C2A29"/>
<path d="M114.961 32.1465C85.7363 32.1465 62.0566 57.3379 62.0566 88.4125V129.448C62.0566 129.448 65.8269 136.725 78.3301 141.631V87.2264H151.593V141.624C164.096 136.725 167.87 129.448 167.87 129.448V88.4125C167.87 57.3379 144.181 32.1465 114.961 32.1465Z" fill="#9063CD"/>
</svg>
