<svg width="150" height="150" viewBox="0 0 150 150" fill="none" xmlns="http://www.w3.org/2000/svg">
<path d="M128.197 63.7711C136.787 59.9806 136.305 71.3655 132.315 78.9596C128.324 86.5541 110.948 108.177 75.0376 108.563C39.1264 108.177 21.75 86.554 17.7593 78.9596C13.7688 71.3654 13.2881 59.9802 21.8784 63.7711L75.0376 87.3258L128.197 63.7711Z" fill="#FEF4BB"/>
<mask id="mask0_2058_9736" style="mask-type:alpha" maskUnits="userSpaceOnUse" x="41" y="41" width="68" height="38">
<path d="M55.2166 49.0556C52.7349 55.6731 49.3668 65.4648 41.8386 74.5751C67.3536 79.9595 81.9026 79.5226 108.154 74.5751C102.652 67.3917 100.024 64.7607 97.6762 52.1023C95.3284 39.4439 86.5397 39.3555 80.0287 43.2785C73.5178 47.2016 73.282 45.2343 69.2748 43.2785C62.751 40.4842 57.6983 42.438 55.2166 49.0556Z" fill="#B12727"/>
</mask>
<g mask="url(#mask0_2058_9736)">
<rect x="31.1795" y="24.3469" width="85.4528" height="61.1059" fill="#2C2A29"/>
<ellipse cx="74.9962" cy="47.346" rx="51.422" ry="19.8118" fill="#FDDA24"/>
</g>
<path d="M128.927 63.5139C84.5169 79.031 60.6492 81.2383 21.4932 63.5139C34.9498 77.9124 50.4271 91.7024 70.8151 91.7024C91.2031 91.7024 107.207 77.1715 128.927 63.5139Z" fill="#FDDA24"/>
</svg>
