<svg width="150" height="150" viewBox="0 0 150 150" fill="none" xmlns="http://www.w3.org/2000/svg">
<mask id="mask0_2058_9779" style="mask-type:alpha" maskUnits="userSpaceOnUse" x="40" y="46" width="70" height="46">
<path d="M40.4256 91.1575C64.1798 87.5027 90.0449 87.0916 109.854 91.1575C109.475 68.0147 103.855 57.4087 100.519 52.2026C97.1826 46.9964 93.9957 45.8363 87.7737 48.6657C81.5517 51.4952 68.3489 53.5219 62.8857 48.6657C57.4225 43.8096 53.1733 46.0858 50.241 51.4952C47.3087 56.9045 42.171 70.3669 40.4256 91.1575Z" fill="#FF7F41"/>
</mask>
<g mask="url(#mask0_2058_9779)">
<rect x="31.9322" y="39.6719" width="85.307" height="58.5435" fill="#595A5C"/>
<ellipse cx="75.1399" cy="87.3685" rx="53.1383" ry="11.2836" fill="#FF7F41"/>
</g>
<path d="M75.0117 84.877C104.289 84.877 128.022 89.9286 128.023 96.1602C128.023 99.108 122.713 101.791 114.017 103.801V100.738C82.9587 96.1738 65.5577 96.589 34.499 100.738V103.437C26.7009 101.472 22 98.9335 22 96.1602C22.0011 89.9286 45.7347 84.877 75.0117 84.877Z" fill="#595A5C"/>
</svg>
