<svg width="150" height="150" viewBox="0 0 150 150" fill="none" xmlns="http://www.w3.org/2000/svg">
<mask id="mask0_2058_9795" style="mask-type:alpha" maskUnits="userSpaceOnUse" x="13" y="57" width="125" height="59">
<path d="M125.274 57.0508L113.989 57.0511L15.3055 69.8497C13.735 70.2012 10.483 70.0478 16.4547 76.1063L16.5423 76.195C22.4637 82.2024 26.2632 86.057 34.3609 99.1166C42.4983 112.24 72.279 122.224 97.5654 110.022C122.852 97.8214 133.543 86.6526 136.3 76.1063C139.057 65.5599 138.848 60.5219 125.274 57.0508Z" fill="#D9D9D9"/>
</mask>
<g mask="url(#mask0_2058_9795)">
<rect width="138.412" height="135.874" transform="matrix(-1 0 0 1 144.68 18.3506)" fill="#9063CD"/>
<path d="M121.049 69.4313C126.829 56.2332 115.158 51.1568 110.148 48.2803L56.966 45.7422L20.9657 62.8322C43.6024 69.4313 40.6089 90.2098 52.8339 97.0122C74.3277 108.972 111.36 91.5542 121.049 69.4313Z" fill="#FDDA24"/>
</g>
<mask id="mask1_2058_9795" style="mask-type:alpha" maskUnits="userSpaceOnUse" x="56" y="35" width="39" height="26">
<path d="M94.1061 53.7557C94.1061 43.3972 85.7089 35 75.3504 35C64.9919 35 56.5947 43.3972 56.5947 53.7557V60.8866H94.1061V53.7557Z" fill="#FF0000"/>
</mask>
<g mask="url(#mask1_2058_9795)">
<rect width="44.5016" height="31.1344" transform="matrix(-1 0 0 1 97.6012 32.6045)" fill="#FDDA24"/>
<ellipse cx="27.437" cy="15.9903" rx="27.437" ry="15.9903" transform="matrix(-1 0 0 1 102.788 42.6777)" fill="#C5ADE5"/>
</g>
<mask id="mask2_2058_9795" style="mask-type:alpha" maskUnits="userSpaceOnUse" x="14" y="50" width="112" height="34">
<path d="M125.504 56.692C114.912 56.4535 108.785 55.9464 97.084 53.5343C83.4455 50.0604 75.7319 49.0631 61.4207 55.0203C43.6963 62.3142 33.2811 65.4259 14.8047 70.0637C14.5698 70.1045 14.3209 70.1667 14.0552 70.2516C14.3065 70.1887 14.5563 70.126 14.8047 70.0637C18.1872 69.4762 18.6805 73.332 24.8285 78.2387C31.4035 83.4862 49.0538 87.852 67.5504 75.2667C86.0469 62.6815 102.992 57.2538 125.504 56.692Z" fill="#BF4545"/>
</mask>
<g mask="url(#mask2_2058_9795)">
<rect width="78.851" height="49.7472" transform="matrix(-1 0 0 1 109.483 50.9421)" fill="#FDDA24"/>
<path d="M78.0326 58.9402C89.268 50.5475 122.76 50.7055 138.102 51.8335C153.398 55.0824 133.533 69.6568 121.688 76.5379L75.8329 94.3047L3.07343 85.6751L0.0276642 63.3396C3.81793 55.353 24.6869 49.6338 31.9629 66.7238C39.2388 83.8138 63.9883 69.4311 78.0326 58.9402Z" fill="#C5ADE5"/>
</g>
</svg>
