<svg width="150" height="150" viewBox="0 0 150 150" fill="none" xmlns="http://www.w3.org/2000/svg">
<rect x="72" y="80.5" width="4" height="37" rx="2" fill="white"/>
<circle cx="74.5" cy="59.5" r="26.5" fill="#FDDB25"/>
<path d="M62.1288 39.2247C67.6118 35.7913 74.2465 34.6721 80.5624 36.1153C85.9408 37.3267 90.6142 40.6137 93.5527 45.2511C96.4293 49.8487 97.3693 55.3875 96.1679 60.6681C95.1628 65.2695 92.3466 69.28 88.3476 71.8057C84.4607 74.227 79.6078 75.0995 75.1171 74.089C71.2729 73.2239 67.1105 71.1805 64.9257 67.7999C62.9573 64.7539 62.5141 60.2143 63.3466 56.714C64.0674 53.8029 65.9215 51.2945 68.5019 49.7413C72.5035 47.2912 78.8464 47.1195 81.5927 51.5147C82.4274 52.8508 82.8593 54.6562 82.4746 56.2052C82.1952 57.3009 81.4892 58.2423 80.5117 58.8204C78.7147 59.8934 76.4125 59.4254 75.1288 57.8009C74.5051 57.0116 73.4647 56.5141 72.6406 57.0909C71.6829 57.7612 71.36 58.6887 71.4023 60.338C71.4344 61.5903 71.5336 62.9058 72.5058 63.8184C74.0579 65.2754 76.9138 66.0723 78.9785 66.0733C81.4018 66.0665 83.724 65.1062 85.4365 63.4024C89.7265 59.1163 88.8385 51.6451 84.7099 47.5909C82.0272 44.9567 78.628 43.8651 74.9199 43.8868C70.76 43.9219 66.7846 45.5972 63.8671 48.544C60.4291 52.0026 59.0684 56.2745 59.1005 61.0684C59.1286 66.324 61.2487 71.3548 64.998 75.0616C69.4172 79.3891 74.7987 81.2133 80.9374 81.1983C85.4189 81.2812 89.7381 80.0221 93.623 77.8429C88.8001 82.8696 82.0162 86.0001 74.4999 86.0001C68.7255 86.0001 63.3834 84.152 59.0302 81.0167C58.7044 80.6723 58.3805 80.3239 58.0585 79.9766C57.8252 79.725 57.5921 79.4732 57.5165 79.3848C56.6855 78.4188 55.9221 77.3965 55.2324 76.3263C50.9619 69.6745 49.7028 61.9754 51.4199 54.2843C52.8486 48.0567 56.6986 42.6425 62.1288 39.2247Z" fill="#FF7F41"/>
</svg>
