<svg width="220" height="220" viewBox="0 0 220 220" fill="none" xmlns="http://www.w3.org/2000/svg">
<g clip-path="url(#clip0_2333_66690)">
<path d="M163.463 167.997C164.784 167.711 166.17 167.941 167.314 168.637C175.201 173.426 182.7 179.855 189.001 187.229C195.238 194.529 199.86 202.229 202.367 209.481C202.621 210.219 202.689 211.005 202.565 211.772C202.442 212.54 202.131 213.269 201.658 213.898C201.185 214.528 200.562 215.041 199.843 215.395C199.123 215.749 198.327 215.935 197.518 215.935H197.509C196.436 215.935 195.39 215.609 194.52 215.006C193.651 214.402 193 213.551 192.662 212.572C190.576 206.534 186.47 199.746 181.098 193.458C175.47 186.884 168.823 181.168 161.856 176.931C160.711 176.236 159.901 175.132 159.603 173.862C159.306 172.593 159.545 171.262 160.268 170.162C160.992 169.062 162.142 168.283 163.463 167.997Z" fill="#FF7F41"/>
<path d="M177.474 181.268C178.701 181.249 179.887 181.697 180.774 182.512C181.53 183.224 199.311 200.197 201.007 222.28C201.098 223.466 200.695 224.638 199.887 225.539C199.078 226.439 197.931 226.994 196.696 227.082C196.582 227.09 196.46 227.09 196.35 227.09C195.172 227.089 194.039 226.66 193.177 225.889C192.315 225.119 191.787 224.064 191.7 222.936C190.269 204.298 174.418 189.081 174.24 188.916C173.374 188.079 172.886 186.949 172.881 185.769C172.876 184.589 173.356 183.455 174.216 182.613C175.076 181.771 176.246 181.287 177.474 181.268Z" fill="#9063CD"/>
<path d="M66.1622 167.997C64.8409 167.711 63.4555 167.941 62.3107 168.637C54.4236 173.426 46.9248 179.855 40.6241 187.229C34.3871 194.529 29.7648 202.229 27.2579 209.481C27.0041 210.219 26.9365 211.005 27.0597 211.772C27.1829 212.54 27.4938 213.269 27.9669 213.898C28.4401 214.528 29.0627 215.041 29.7823 215.395C30.5018 215.749 31.2983 215.935 32.1066 215.935H32.1163C33.1892 215.935 34.2348 215.609 35.1046 215.006C35.9744 214.402 36.6249 213.551 36.963 212.572C39.0488 206.534 43.1545 199.746 48.5275 193.458C54.1546 186.884 60.8019 181.168 67.7687 176.931C68.9135 176.236 69.7239 175.132 70.0216 173.862C70.3192 172.593 70.0801 171.262 69.3566 170.162C68.6328 169.062 67.4835 168.283 66.1622 167.997Z" fill="#FF7F41"/>
<path d="M52.1513 181.268C50.9236 181.249 49.7376 181.697 48.8506 182.512C48.0954 183.224 30.3136 200.197 28.6181 222.28C28.5272 223.466 28.9298 224.638 29.7383 225.539C30.5467 226.439 31.6944 226.994 32.9287 227.082C33.043 227.09 33.1647 227.09 33.2754 227.09C34.4526 227.089 35.5862 226.66 36.4482 225.889C37.3103 225.119 37.8378 224.063 37.9248 222.935C39.3572 204.288 55.2232 189.065 55.3847 188.915C56.2509 188.078 56.7396 186.948 56.7441 185.768C56.7486 184.588 56.2689 183.454 55.4091 182.612C54.5495 181.77 53.3789 181.287 52.1513 181.268Z" fill="#9063CD"/>
<path d="M100.173 154C100.127 154.108 76.714 209.272 60.7139 209.671C50.8372 209.905 38 178.593 38 178.593C38.0836 178.522 66.1538 154.733 100.173 154Z" fill="#F5B6CD"/>
<path d="M126.406 154.162C162.237 154.94 191.793 180.032 191.793 180.032C191.779 180.067 178.286 212.967 167.906 212.71C151.061 212.291 126.406 154.162 126.406 154.162Z" fill="#F5B6CD"/>
<path d="M114.588 151.787C146.393 151.787 172.176 180.577 172.176 216.091C172.176 251.604 146.393 280.394 114.588 280.394C82.7831 280.393 57.0002 251.604 57 216.091C57 180.577 82.783 151.787 114.588 151.787Z" fill="#F5B6CD"/>
<path d="M92.617 156.643C88.5613 158.522 84.7578 160.868 81.29 163.628H147.894C144.427 160.868 140.624 158.522 136.569 156.643H92.617Z" fill="#00C389"/>
<path d="M72.2009 172.57C70.3738 174.79 68.7019 177.124 67.1963 179.556H161.984C160.476 177.123 158.801 174.79 156.972 172.57H72.2009Z" fill="#00C389"/>
<path d="M62.5608 188.496C61.5874 190.777 60.7391 193.106 60.0195 195.473H169.151C168.431 193.106 167.583 190.777 166.61 188.496H62.5608Z" fill="#00C389"/>
<path d="M171.234 204.426C171.612 206.712 171.877 209.037 172.029 211.402H57.1562C57.3112 209.04 57.5768 206.714 57.9531 204.426H171.234Z" fill="#00C389"/>
</g>
<defs>
<clipPath id="clip0_2333_66690">
<rect width="220" height="220" fill="white"/>
</clipPath>
</defs>
</svg>
