<svg width="150" height="150" viewBox="0 0 150 150" fill="none" xmlns="http://www.w3.org/2000/svg">
<rect width="70" height="92" rx="35" transform="matrix(-1 0 0 1 110 29)" fill="#CCA07C"/>
<path d="M57.0284 93.0111C58.1499 119.448 92.1273 119.73 93.6044 92.0603C93.647 91.2628 92.7582 90.7566 92.0615 91.1471C83.1053 96.1672 68.6746 97.2597 58.5254 92.0942C57.8375 91.7441 56.9957 92.24 57.0284 93.0111Z" fill="#8C342C"/>
<path d="M92.0341 91.1468C92.7308 90.7563 93.6195 91.2625 93.5771 92.0599C93.5109 93.2996 93.3782 94.4831 93.1874 95.6107C86.1609 100.788 72.1262 106.071 57.583 97.6751C57.2704 96.2236 57.0713 94.6687 57.0009 93.0111C56.9682 92.2399 57.8101 91.744 58.498 92.0941C68.6471 97.2596 83.0779 96.167 92.0341 91.1468Z" fill="white"/>
</svg>
