<svg width="150" height="150" viewBox="0 0 150 150" fill="none" xmlns="http://www.w3.org/2000/svg">
<rect x="44.9337" y="54.228" width="60.1322" height="74.3741" rx="30.0661" fill="#E6DCCB"/>
<path d="M106.478 21.3979C111.295 21.3981 115.277 24.9418 115.932 29.5483C116.789 29.2976 117.696 29.1617 118.634 29.1616C123.909 29.1616 128.186 33.4105 128.186 38.6519C128.186 40.5861 127.602 42.384 126.602 43.8843C131.397 44.3907 135.132 48.4223 135.132 53.3208C135.132 58.5623 130.856 62.812 125.581 62.812C125.527 62.812 125.473 62.808 125.419 62.8071C125.523 63.368 125.581 63.9458 125.581 64.5366C125.58 69.778 121.304 74.0269 116.029 74.0269C110.754 74.0268 106.477 69.7779 106.477 64.5366C106.477 63.8741 106.545 63.2272 106.675 62.603L94.3207 58.0659L91.2397 45.5435C86.1854 45.2972 82.1636 41.1479 82.1635 36.0649C82.1635 30.8235 86.44 26.5747 91.7153 26.5747C93.7897 26.5747 95.7086 27.233 97.2748 28.3491C98.3927 24.3411 102.088 21.3979 106.478 21.3979Z" fill="#E3C008"/>
<ellipse cx="101.701" cy="52.8887" rx="9.11759" ry="9.05915" fill="#59CBE8"/>
<path d="M102.937 76.6174C103.37 83.0882 103.803 84.8137 105.536 96.8926C117.23 54.6166 102.023 35.9683 74.7834 36.4983V67.5582C84.3123 67.5582 86.3273 67.2953 91.2425 65.8327C98.7391 63.0545 102.504 70.1465 102.937 76.6174Z" fill="#FDDA24"/>
<path d="M43.523 21.3979C38.7059 21.3981 34.7245 24.9418 34.0689 29.5483C33.2118 29.2975 32.3047 29.1616 31.3658 29.1616C26.0907 29.1618 21.8141 33.4105 21.814 38.6519C21.814 40.5861 22.3989 42.384 23.399 43.8843C18.6037 44.3904 14.8679 48.422 14.8677 53.3208C14.8677 58.5622 19.1442 62.812 24.4195 62.812C24.4736 62.812 24.5277 62.808 24.5816 62.8071C24.4776 63.3681 24.4195 63.9458 24.4195 64.5366C24.4196 69.7779 28.6962 74.0266 33.9713 74.0269C39.2465 74.0269 43.5229 69.778 43.523 64.5366C43.523 63.8742 43.4558 63.2272 43.3257 62.603L55.6802 58.0659L58.7623 45.5435C63.8157 45.2963 67.8364 41.1473 67.8365 36.0649C67.8365 30.8235 63.56 26.5747 58.2847 26.5747C56.211 26.5747 54.293 27.2328 52.7271 28.3481C51.609 24.3405 47.9125 21.3979 43.523 21.3979Z" fill="#E3C008"/>
<ellipse cx="9.11759" cy="9.05915" rx="9.11759" ry="9.05915" transform="matrix(-1 0 0 1 57.4161 43.8296)" fill="#59CBE8"/>
<path d="M47.0625 76.6174C46.6294 83.0882 46.1963 84.8137 44.4637 96.8926C32.7691 54.6166 47.9764 35.9683 75.2162 36.4983V67.5582C65.6873 67.5582 63.6722 67.2953 58.7571 65.8327C51.2605 63.0545 47.4957 70.1465 47.0625 76.6174Z" fill="#FDDA24"/>
</svg>
