<svg width="150" height="150" viewBox="0 0 150 150" fill="none" xmlns="http://www.w3.org/2000/svg">
<path d="M74.9999 24.8187C100.403 15.8157 109.182 37.9735 123.028 64.7211C136.874 91.4687 129.952 116.901 118.269 122.602C106.587 128.302 87.3643 133.678 74.9999 106.377C62.6357 133.678 43.414 128.302 31.7314 122.602C20.0488 116.902 13.1255 91.4688 26.9716 64.7211C40.8175 37.9735 49.5973 15.816 74.9999 24.8187Z" fill="#E3C008"/>
<rect x="44.9341" y="46.5151" width="60.1322" height="74.3741" rx="30.0661" fill="#E6DCCB"/>
<path d="M75.0005 29.7441C95.1887 29.7441 111.555 46.1097 111.555 66.2979C111.555 67.4328 111.5 68.5555 111.399 69.6641C100.742 66.4212 88.2958 64.5566 75.0005 64.5566C61.7049 64.5567 49.2593 66.4211 38.602 69.6641C38.5008 68.5555 38.4467 67.4328 38.4467 66.2979C38.4468 46.1098 54.8124 29.7444 75.0005 29.7441Z" fill="#FDDA24"/>
</svg>
