<svg width="150" height="150" viewBox="0 0 150 150" fill="none" xmlns="http://www.w3.org/2000/svg">
<rect x="45.165" y="45.0332" width="60.1322" height="74.3741" rx="30.0661" fill="#E6DCCB"/>
<path d="M61.4295 73.5169C54.5331 69.3221 51.3441 66.0737 48.5952 56.4409C45.6615 47.9027 67.7792 43.2448 80.1309 45.6755C80.1309 45.6755 97.7323 50.8726 102.133 63.494C97.7323 66.4637 91.1365 68.0648 86.3647 64.2364C87.041 67.5097 88.6905 68.2925 91.1318 70.5472C81.4578 70.7795 75.897 71.129 70.2302 64.9789C70.2003 67.5929 70.6177 68.9714 72.0637 71.2896C65.2584 71.1809 61.8405 70.2637 57.3959 64.9789C58.179 68.5982 59.0105 70.4447 61.4295 73.5169Z" fill="#2C2A29"/>
<path d="M42 58.4844H52.9105C50.7853 58.4844 49.0311 60.1463 48.9164 62.2685L47.6666 85.3891C47.5948 86.7183 46.496 87.7593 45.1649 87.7593L42 58.4844Z" fill="#2C2A29"/>
<path d="M108.462 58.4844H97.5519C99.6771 58.4844 101.431 60.1463 101.546 62.2685L102.796 85.3891C102.868 86.7183 103.966 87.7593 105.298 87.7593L108.462 58.4844Z" fill="#2C2A29"/>
<path d="M42 58.4837H108.462C108.462 58.3336 108.461 58.1824 108.459 58.0301C108.27 41.2142 92.048 30 75.231 30C58.414 30 42.1923 41.2142 42.0026 58.0301C42.0009 58.1824 42 58.3336 42 58.4837Z" fill="#2C2A29"/>
</svg>
