<svg width="150" height="150" viewBox="0 0 150 150" fill="none" xmlns="http://www.w3.org/2000/svg">
<rect x="44.7041" y="48.3594" width="60.1322" height="74.3741" rx="30.0661" fill="#E6DCCB"/>
<path d="M108.124 56.1021C116.086 56.1021 122.54 49.5874 122.54 41.5511C122.54 33.5147 116.086 27 108.124 27C100.162 27 93.7073 33.5147 93.7073 41.5511C93.7073 49.5874 100.162 56.1021 108.124 56.1021Z" fill="#9063CD"/>
<path d="M94.6845 65.2283C102.646 65.2283 109.101 58.7136 109.101 50.6773C109.101 42.641 102.646 36.1262 94.6845 36.1262C86.7225 36.1262 80.2681 42.641 80.2681 50.6773C80.2681 58.7136 86.7225 65.2283 94.6845 65.2283Z" fill="#2C2A29"/>
<path d="M41.4164 56.1021C49.3783 56.1021 55.8328 49.5874 55.8328 41.5511C55.8328 33.5147 49.3783 27 41.4164 27C33.4544 27 27 33.5147 27 41.5511C27 49.5874 33.4544 56.1021 41.4164 56.1021Z" fill="#9063CD"/>
<path d="M54.8555 65.2284C62.8175 65.2284 69.2719 58.7136 69.2719 50.6773C69.2719 42.641 62.8175 36.1262 54.8555 36.1262C46.8936 36.1262 40.4391 42.641 40.4391 50.6773C40.4391 58.7136 46.8936 65.2284 54.8555 65.2284Z" fill="#2C2A29"/>
<path d="M74.8922 29.959C54.6176 29.959 38.1901 48.3169 38.1901 70.962V100.866C38.1901 100.866 40.8056 106.169 49.4796 109.745V70.0977H100.305V109.739C108.979 106.169 111.597 100.866 111.597 100.866V70.962C111.597 48.3169 95.163 29.959 74.8922 29.959Z" fill="#9063CD"/>
</svg>
