<svg width="150" height="150" viewBox="0 0 150 150" fill="none" xmlns="http://www.w3.org/2000/svg">
<path d="M115.77 113.782C124.001 112.26 128.194 110.449 131.934 106.203C122.014 102.32 100.286 88.7916 100.286 59.5167L38.5709 56.3518C22.7466 81.6706 18.0549 114.327 40.1909 127.156C37.6785 123.815 37.1023 121.85 37.1328 118.24C52.2878 135.187 68.4381 135.429 102.227 129.831L87.81 124.927C104.523 127.098 113.115 125.473 126.692 116.011C120.449 115.773 118.484 115.148 115.77 113.782Z" fill="#454648"/>
<rect x="40.1544" y="44.4846" width="60.1322" height="74.3741" rx="30.0661" fill="#E6DCCB"/>
<path d="M53.82 64.4867C40.1955 68.4902 39.5389 76.1685 40.1955 96.0696C34.5566 86.1401 33.4315 87.3853 33.8242 72.1764C27.4945 84.0446 22.7472 88.7919 19.3331 112.528C11.8224 83.3646 37.2151 16.0004 66.1671 16.0002C95.1191 16.0001 77.6627 44.4694 77.6627 44.4694C70.8641 56.0559 67.4444 60.4832 53.82 64.4867Z" fill="#2C2A29"/>
<path d="M99.4043 69.3913C77.2354 60.4876 74.3685 50.6072 77.7178 28.6584C99.973 30.3684 110.248 39.1702 112.958 66.3254C115.669 93.4807 119.284 97.8606 131.934 106.182C96.2417 107.058 99.4043 69.3913 99.4043 69.3913Z" fill="#2C2A29"/>
</svg>
