<svg width="150" height="150" viewBox="0 0 150 150" fill="none" xmlns="http://www.w3.org/2000/svg">
<rect x="45.066" y="54.228" width="60.1322" height="74.3741" rx="30.0661" fill="#E6DCCB"/>
<path d="M106.61 21.3979C111.427 21.3981 115.409 24.9418 116.064 29.5483C116.921 29.2976 117.828 29.1617 118.767 29.1616C124.042 29.1616 128.318 33.4105 128.318 38.6519C128.318 40.5861 127.734 42.384 126.734 43.8843C131.529 44.3907 135.264 48.4223 135.265 53.3208C135.265 58.5623 130.988 62.812 125.713 62.812C125.659 62.812 125.605 62.808 125.552 62.8071C125.656 63.368 125.713 63.9458 125.713 64.5366C125.713 69.778 121.436 74.0269 116.161 74.0269C110.886 74.0268 106.609 69.7779 106.609 64.5366C106.609 63.8741 106.678 63.2272 106.808 62.603L94.4531 58.0659L91.372 45.5435C86.3177 45.2972 82.2959 41.1479 82.2958 36.0649C82.2958 30.8235 86.5723 26.5747 91.8476 26.5747C93.9221 26.5747 95.8409 27.233 97.4072 28.3491C98.5251 24.3411 102.221 21.3979 106.61 21.3979Z" fill="#454648"/>
<ellipse cx="101.833" cy="52.8887" rx="9.11759" ry="9.05915" fill="#FF8389"/>
<path d="M103.069 76.6174C103.503 83.0882 103.936 84.8137 105.668 96.8926C117.363 54.6166 102.155 35.9683 74.9157 36.4983V67.5582C84.4446 67.5582 86.4597 67.2953 91.3748 65.8327C98.8714 63.0545 102.636 70.1465 103.069 76.6174Z" fill="#2C2A29"/>
<path d="M43.6553 21.3979C38.8382 21.3981 34.8568 24.9418 34.2012 29.5483C33.3441 29.2975 32.437 29.1616 31.4981 29.1616C26.223 29.1618 21.9464 33.4105 21.9464 38.6519C21.9464 40.5861 22.5312 42.384 23.5313 43.8843C18.736 44.3904 15.0002 48.422 15.0001 53.3208C15.0001 58.5622 19.2766 62.812 24.5518 62.812C24.6059 62.812 24.66 62.808 24.7139 62.8071C24.61 63.3681 24.5518 63.9458 24.5518 64.5366C24.5519 69.7779 28.8285 74.0266 34.1036 74.0269C39.3788 74.0269 43.6552 69.778 43.6553 64.5366C43.6553 63.8742 43.5881 63.2272 43.4581 62.603L55.8126 58.0659L58.8946 45.5435C63.9481 45.2963 67.9688 41.1473 67.9688 36.0649C67.9688 30.8235 63.6923 26.5747 58.4171 26.5747C56.3434 26.5747 54.4253 27.2328 52.8594 28.3481C51.7413 24.3405 48.0448 21.3979 43.6553 21.3979Z" fill="#454648"/>
<ellipse cx="9.11759" cy="9.05915" rx="9.11759" ry="9.05915" transform="matrix(-1 0 0 1 57.5485 43.8296)" fill="#FF8389"/>
<path d="M47.1948 76.6174C46.7617 83.0882 46.3286 84.8137 44.596 96.8926C32.9014 54.6166 48.1088 35.9683 75.3485 36.4983V67.5582C65.8196 67.5582 63.8046 67.2953 58.8894 65.8327C51.3928 63.0545 47.628 70.1465 47.1948 76.6174Z" fill="#2C2A29"/>
</svg>
