<svg width="150" height="150" viewBox="0 0 150 150" fill="none" xmlns="http://www.w3.org/2000/svg">
<path d="M74.9998 24.82C100.403 15.8169 109.182 37.9746 123.028 64.7223C136.874 91.4698 129.952 116.902 118.269 122.602C106.587 128.303 87.3642 133.678 74.9998 106.378C62.6355 133.678 43.4139 128.303 31.7313 122.602C20.0487 116.902 13.1257 91.47 26.9715 64.7223C40.8175 37.9746 49.597 15.817 74.9998 24.82Z" fill="#E26224"/>
<rect x="44.934" y="46.5156" width="60.1322" height="74.3741" rx="30.0661" fill="#E6DCCB"/>
<path d="M75.0004 29.7446C95.1886 29.7446 111.555 46.1102 111.555 66.2983C111.555 67.4333 111.5 68.556 111.399 69.6646C100.742 66.4217 88.2958 64.5571 75.0004 64.5571C61.7049 64.5572 49.2592 66.4216 38.602 69.6646C38.5008 68.556 38.4467 67.4333 38.4467 66.2983C38.4468 46.1103 54.8124 29.7449 75.0004 29.7446Z" fill="#FF7F41"/>
</svg>
