<svg width="150" height="150" viewBox="0 0 150 150" fill="none" xmlns="http://www.w3.org/2000/svg">
<rect x="45.9121" y="47.6992" width="60.1322" height="74.3741" rx="30.0661" fill="#E6DCCB"/>
<path d="M47.7103 82.5755V91.791C47.7103 92.7841 46.9052 93.5892 45.9121 93.5892V65.1055H53.8242C53.5208 72.9913 52.2333 76.8426 47.7103 82.5755Z" fill="#E26224"/>
<path d="M104.246 82.5755V91.791C104.246 92.7841 105.051 93.5892 106.044 93.5892V65.1055H98.1318C98.4352 72.9913 99.7228 76.8426 104.246 82.5755Z" fill="#E26224"/>
<path d="M76.7041 28C82.7148 28 87.7651 32.1106 89.1982 37.6738C90.66 35.9356 92.85 34.8302 95.2988 34.8301C99.6998 34.8301 103.268 38.3979 103.268 42.7988C103.268 43.0251 103.256 43.2492 103.237 43.4707C103.846 43.2803 104.494 43.1777 105.165 43.1777C108.728 43.1778 111.616 46.0662 111.616 49.6289C111.616 51.5706 110.756 53.3096 109.398 54.4922C111.171 55.4566 112.374 57.3362 112.374 59.4961C112.374 60.8402 111.906 62.0741 111.127 63.0479C111.436 63.5617 111.615 64.1631 111.615 64.8066C111.615 66.6927 110.086 68.2216 108.2 68.2217C106.778 68.2217 105.558 67.3521 105.045 66.1152C103.777 66.9663 102.252 67.4648 100.61 67.4648C98.564 67.4648 96.6983 66.6926 95.2871 65.4248C93.8255 67.1366 91.6539 68.2236 89.2266 68.2236C85.8932 68.2236 83.0388 66.1768 81.8496 63.2715C80.2621 64.919 78.035 65.9463 75.5664 65.9463C72.3693 65.9463 69.5749 64.2263 68.0547 61.6621C67.1107 65.0098 64.0374 67.4648 60.3877 67.4648C58.1277 67.4648 56.0889 66.5221 54.6387 65.0107C53.1861 66.9607 50.8626 68.2236 48.2441 68.2236C47.5172 68.2236 46.8137 68.1238 46.1445 67.9414C45.5236 68.5832 44.654 68.9834 43.6904 68.9834C41.8045 68.9832 40.2755 67.4543 40.2754 65.5684C40.2754 64.9619 40.4337 64.3921 40.7109 63.8984C39.1029 63.0856 38 61.4191 38 59.4941C38.0001 57.3792 39.331 55.5752 41.2012 54.874C40.6112 53.7616 40.2754 52.4934 40.2754 51.1465C40.2754 46.7456 43.8432 43.1778 48.2441 43.1777C48.9079 43.1777 49.5525 43.2602 50.1689 43.4131C50.1535 43.2103 50.1426 43.0055 50.1426 42.7988C50.1427 38.398 53.7105 34.8303 58.1113 34.8301C60.5591 34.8301 62.7482 35.935 64.21 37.6719C65.6437 32.1096 70.6941 28.0001 76.7041 28Z" fill="#FF7F41"/>
</svg>
