<svg width="150" height="150" viewBox="0 0 150 150" fill="none" xmlns="http://www.w3.org/2000/svg">
<rect x="45.066" y="53.8301" width="60.1322" height="74.3741" rx="30.0661" fill="#E6DCCB"/>
<path d="M106.61 21C111.427 21.0001 115.409 24.5439 116.064 29.1504C116.921 28.8997 117.828 28.7637 118.767 28.7637C124.042 28.7637 128.318 33.0125 128.318 38.2539C128.318 40.1881 127.734 41.9861 126.734 43.4863C131.529 43.9928 135.264 48.0243 135.265 52.9229C135.265 58.1643 130.988 62.4141 125.713 62.4141C125.659 62.4141 125.605 62.4101 125.552 62.4092C125.656 62.9701 125.713 63.5479 125.713 64.1387C125.713 69.3801 121.436 73.6289 116.161 73.6289C110.886 73.6288 106.609 69.38 106.609 64.1387C106.609 63.4762 106.678 62.8293 106.808 62.2051L94.453 57.668L91.372 45.1455C86.3177 44.8992 82.2959 40.75 82.2958 35.667C82.2958 30.4255 86.5723 26.1768 91.8476 26.1768C93.9221 26.1768 95.8409 26.8351 97.4072 27.9512C98.525 23.9432 102.221 21 106.61 21Z" fill="#E26224"/>
<ellipse cx="101.833" cy="52.4908" rx="9.11759" ry="9.05915" fill="#59CBE8"/>
<path d="M103.069 76.2194C103.502 82.6903 103.936 84.4158 105.668 96.4946C117.363 54.2186 102.155 35.5703 74.9157 36.1003V67.1603C84.4446 67.1602 86.4596 66.8974 91.3748 65.4347C98.8714 62.6565 102.636 69.7486 103.069 76.2194Z" fill="#FF7F41"/>
<path d="M43.6553 21C38.8382 21.0001 34.8568 24.5439 34.2012 29.1504C33.3441 28.8996 32.437 28.7637 31.4981 28.7637C26.223 28.7638 21.9464 33.0126 21.9464 38.2539C21.9464 40.1882 22.5312 41.986 23.5313 43.4863C18.736 43.9924 15.0002 48.0241 15.0001 52.9229C15.0001 58.1643 19.2766 62.414 24.5518 62.4141C24.6059 62.4141 24.66 62.4101 24.7139 62.4092C24.61 62.9701 24.5518 63.5479 24.5518 64.1387C24.5519 69.3799 28.8285 73.6287 34.1036 73.6289C39.3788 73.6289 43.6552 69.3801 43.6553 64.1387C43.6553 63.4762 43.5881 62.8293 43.4581 62.2051L55.8126 57.668L58.8946 45.1455C63.9481 44.8984 67.9688 40.7494 67.9688 35.667C67.9688 30.4255 63.6923 26.1768 58.4171 26.1768C56.3434 26.1768 54.4253 26.8348 52.8594 27.9502C51.7413 23.9426 48.0448 21 43.6553 21Z" fill="#E26224"/>
<ellipse cx="9.11759" cy="9.05915" rx="9.11759" ry="9.05915" transform="matrix(-1 0 0 1 57.5485 43.4316)" fill="#59CBE8"/>
<path d="M47.1948 76.2194C46.7617 82.6903 46.3286 84.4158 44.596 96.4946C32.9014 54.2186 48.1088 35.5703 75.3485 36.1003V67.1603C65.8196 67.1602 63.8046 66.8974 58.8894 65.4347C51.3928 62.6565 47.628 69.7486 47.1948 76.2194Z" fill="#FF7F41"/>
</svg>
