<svg width="150" height="150" viewBox="0 0 150 150" fill="none" xmlns="http://www.w3.org/2000/svg">
<rect x="45.7251" y="47.6626" width="60.1322" height="74.3741" rx="30.0661" fill="#E6DCCB"/>
<path d="M47.5233 82.5388V91.7543C47.5233 92.7475 46.7182 93.5525 45.7251 93.5525V65.0688H53.6372C53.3338 72.9547 52.0463 76.806 47.5233 82.5388Z" fill="#7D43CC"/>
<path d="M104.059 82.5388V91.7543C104.059 92.7475 104.864 93.5525 105.857 93.5525V65.0688H97.9448C98.2482 72.9547 99.5358 76.806 104.059 82.5388Z" fill="#7D43CC"/>
<path d="M76.5171 27.9634C82.5278 27.9634 87.5781 32.074 89.0112 37.6372C90.4729 35.899 92.663 34.7935 95.1118 34.7935C99.5128 34.7935 103.08 38.3613 103.081 42.7622C103.081 42.9885 103.069 43.2125 103.05 43.4341C103.659 43.2437 104.307 43.1411 104.978 43.1411C108.541 43.1411 111.429 46.0296 111.429 49.5923C111.429 51.534 110.569 53.273 109.211 54.4556C110.984 55.42 112.187 57.2996 112.187 59.4595C112.187 60.8036 111.719 62.0375 110.94 63.0112C111.249 63.525 111.428 64.1265 111.428 64.77C111.428 66.6561 109.899 68.185 108.013 68.1851C106.591 68.1851 105.371 67.3154 104.858 66.0786C103.59 66.9297 102.065 67.4282 100.423 67.4282C98.377 67.4282 96.5112 66.656 95.1001 65.3882C93.6385 67.1 91.4669 68.187 89.0396 68.187C85.7062 68.187 82.8517 66.1401 81.6626 63.2349C80.0751 64.8824 77.848 65.9097 75.3794 65.9097C72.1823 65.9097 69.3878 64.1897 67.8677 61.6255C66.9237 64.9732 63.8503 67.4282 60.2007 67.4282C57.9407 67.4282 55.9019 66.4854 54.4517 64.9741C52.9991 66.9241 50.6756 68.187 48.0571 68.187C47.3302 68.187 46.6267 68.0872 45.9575 67.9048C45.3366 68.5466 44.467 68.9468 43.5034 68.9468C41.6175 68.9466 40.0885 67.4177 40.0884 65.5317C40.0884 64.9253 40.2467 64.3555 40.5239 63.8618C38.9159 63.049 37.813 61.3824 37.813 59.4575C37.8131 57.3426 39.144 55.5386 41.0142 54.8374C40.4242 53.725 40.0884 52.4568 40.0884 51.1099C40.0884 46.7089 43.6562 43.1412 48.0571 43.1411C48.7209 43.1411 49.3655 43.2236 49.9819 43.3765C49.9665 43.1737 49.9556 42.9689 49.9556 42.7622C49.9556 38.3614 53.5235 34.7936 57.9243 34.7935C60.3721 34.7935 62.5612 35.8984 64.0229 37.6353C65.4567 32.0729 70.5071 27.9635 76.5171 27.9634Z" fill="#9063CD"/>
</svg>
