<svg width="220" height="220" viewBox="0 0 220 220" fill="none" xmlns="http://www.w3.org/2000/svg">
<path fill-rule="evenodd" clip-rule="evenodd" d="M64.577 139.983C72.2339 138.926 83.4898 139.58 93.7806 139.142C95.6978 139.061 97.5814 139.011 99.402 139C105.334 144.708 114.716 144.708 120.648 139C122.468 139.012 124.351 139.062 126.267 139.144C136.545 139.584 147.778 138.928 155.423 139.983C161.523 140.825 167.436 143.106 171.636 147.657C183.342 160.341 189 177.905 189 177.905C189 177.905 172.438 193.864 162 196.601V219.998H58V196.601C47.5616 193.864 31 177.905 31 177.905C31 177.905 36.6577 160.341 48.3638 147.657C52.5643 143.106 58.4768 140.825 64.577 139.983Z" fill="#00C389"/>
<path d="M112 187.011H108V157.011L112 157.033V187.011Z" fill="#B0ECDA"/>
<path d="M58 196.594C49.1185 194.265 35.8045 182.364 32.0304 178.866L31.0001 177.898C31.0001 177.898 31.4608 176.468 32.3911 174.13L35.6593 176.765C36.1737 177.233 36.7796 177.78 37.463 178.382C39.7569 180.402 42.8825 183.035 46.2482 185.528C49.6459 188.045 53.138 190.305 56.1818 191.682C56.8361 191.979 57.4428 192.222 58 192.414V196.594Z" fill="#B0ECDA"/>
<path d="M162 196.594V192.414C162.557 192.222 163.164 191.979 163.818 191.682C166.862 190.305 170.354 188.045 173.752 185.528C177.118 183.035 180.243 180.402 182.537 178.382C183.22 177.78 183.826 177.233 184.341 176.765L187.554 173.991C188.521 176.412 189 177.898 189 177.898L187.97 178.866C184.196 182.364 170.881 194.265 162 196.594Z" fill="#B0ECDA"/>
</svg>
