<svg width="150" height="150" viewBox="0 0 150 150" fill="none" xmlns="http://www.w3.org/2000/svg">
<path d="M63.7822 44.6299C63.7822 44.6299 46.519 85.3299 34.7256 85.624C27.4528 85.7959 18 62.7393 18 62.7393C18.0385 62.7066 38.7178 45.1701 63.7822 44.6299Z" fill="#59CBE8"/>
<path d="M83.0991 44.749C109.484 45.3218 131.248 63.7988 131.248 63.7988C131.248 63.7988 121.305 88.0514 113.658 87.8613C101.253 87.5526 83.0991 44.749 83.0991 44.749Z" fill="#59CBE8"/>
<path d="M74.396 43C97.816 43 116.802 64.1994 116.802 90.3506V106.373H31.9908V90.3506C31.9908 64.1998 50.9762 43.0003 74.396 43Z" fill="#59CBE8"/>
<path d="M58.2178 46.5752C55.2313 47.9594 52.4305 49.6867 49.877 51.7191H98.9219C96.3688 49.6867 93.5685 47.9594 90.5824 46.5752H58.2178Z" fill="#CCEFF8"/>
<path d="M43.1842 58.3037C41.8389 59.9382 40.6078 61.6566 39.4991 63.4476H109.297C108.187 61.6564 106.954 59.938 105.606 58.3037H43.1842Z" fill="#CCEFF8"/>
<path d="M36.0856 70.0312C35.3688 71.7111 34.7442 73.426 34.2143 75.1687H114.575C114.045 73.426 113.42 71.7111 112.703 70.0312H36.0856Z" fill="#CCEFF8"/>
<path d="M116.109 81.7617C116.387 83.4451 116.582 85.1578 116.695 86.8994H32.1057C32.2198 85.1595 32.4155 83.4468 32.6927 81.7617H116.109Z" fill="#CCEFF8"/>
</svg>
