<svg width="150" height="150" viewBox="0 0 150 150" fill="none" xmlns="http://www.w3.org/2000/svg">
<path d="M63.7823 44.6296C63.7823 44.6296 46.519 85.3297 34.7256 85.6238C27.4529 85.7957 18 62.739 18 62.739C18.0386 62.7063 38.7178 45.1699 63.7823 44.6296Z" fill="#F5B6CD"/>
<path d="M83.0991 44.749C109.484 45.3218 131.248 63.7988 131.248 63.7988C131.248 63.7988 121.305 88.0514 113.658 87.8613C101.253 87.5526 83.0991 44.749 83.0991 44.749Z" fill="#F5B6CD"/>
<path d="M74.396 43C97.816 43 116.802 64.1994 116.802 90.3506V106.373H31.9908V90.3506C31.9908 64.1998 50.9762 43.0003 74.396 43Z" fill="#F5B6CD"/>
<path d="M58.2178 46.5757C55.2313 47.9599 52.4306 49.6871 49.8771 51.7195H98.922C96.3689 49.6872 93.5686 47.9599 90.5825 46.5757H58.2178Z" fill="#00C389"/>
<path d="M43.1842 58.304C41.8388 59.9384 40.6077 61.6568 39.499 63.4478H109.297C108.187 61.6567 106.954 59.9383 105.606 58.304H43.1842Z" fill="#00C389"/>
<path d="M36.0856 70.0312C35.3688 71.7111 34.7442 73.426 34.2143 75.1687H114.575C114.045 73.426 113.42 71.7111 112.703 70.0312H36.0856Z" fill="#00C389"/>
<path d="M116.109 81.7615C116.387 83.4448 116.582 85.1576 116.695 86.8992H32.1058C32.2199 85.1593 32.4156 83.4466 32.6927 81.7615H116.109Z" fill="#00C389"/>
</svg>
